<mxfile host="app.diagrams.net" agent="Mozilla/5.0 (X11; Linux x86_64) AppleWebKit/537.36 (KHTML, like Gecko) Chrome/127.0.0.0 Safari/537.36" version="24.7.6" pages="3">
  <diagram name="Page-1" id="0YGSdIi3pWzssBNO3ysi">
    <mxGraphModel dx="4568" dy="1576" grid="1" gridSize="10" guides="1" tooltips="1" connect="1" arrows="1" fold="1" page="1" pageScale="1" pageWidth="850" pageHeight="1100" math="0" shadow="0">
      <root>
        <mxCell id="0" />
        <mxCell id="1" parent="0" />
        <mxCell id="WWXppitXivF2P4fgh3su-1" value="" style="swimlane;shape=mxgraph.bootstrap.anchor;strokeColor=#999999;fillColor=#ffffff;fontColor=#666666;childLayout=stackLayout;horizontal=0;startSize=0;horizontalStack=1;resizeParent=1;resizeParentMax=0;resizeLast=0;collapsible=0;marginBottom=0;whiteSpace=wrap;html=1;" vertex="1" parent="1">
          <mxGeometry x="-340" y="320" width="420" height="30" as="geometry" />
        </mxCell>
        <mxCell id="WWXppitXivF2P4fgh3su-3" value="Browse Books" style="text;strokeColor=#6c8ebf;align=center;verticalAlign=middle;spacingLeft=10;spacingRight=10;overflow=hidden;points=[[0,0.5],[1,0.5]];portConstraint=eastwest;rotatable=0;whiteSpace=wrap;html=1;fillColor=#dae8fc;fontSize=17;" vertex="1" parent="WWXppitXivF2P4fgh3su-1">
          <mxGeometry width="170" height="30" as="geometry" />
        </mxCell>
        <mxCell id="WWXppitXivF2P4fgh3su-4" value="My Account" style="text;strokeColor=inherit;align=center;verticalAlign=middle;spacingLeft=10;spacingRight=10;overflow=hidden;points=[[0,0.5],[1,0.5]];portConstraint=eastwest;rotatable=0;whiteSpace=wrap;html=1;fillColor=inherit;fontColor=inherit;fontSize=17;" vertex="1" parent="WWXppitXivF2P4fgh3su-1">
          <mxGeometry x="170" width="130" height="30" as="geometry" />
        </mxCell>
        <mxCell id="WWXppitXivF2P4fgh3su-5" value="Logout" style="text;strokeColor=inherit;align=center;verticalAlign=middle;spacingLeft=10;spacingRight=10;overflow=hidden;points=[[0,0.5],[1,0.5]];portConstraint=eastwest;rotatable=0;whiteSpace=wrap;html=1;fillColor=inherit;fontColor=inherit;fontSize=17;" vertex="1" parent="WWXppitXivF2P4fgh3su-1">
          <mxGeometry x="300" width="120" height="30" as="geometry" />
        </mxCell>
        <mxCell id="WWXppitXivF2P4fgh3su-14" value="Search Books..." style="strokeWidth=1;shadow=0;dashed=0;align=center;html=1;shape=mxgraph.mockup.forms.searchBox;strokeColor=#999999;mainText=;strokeColor2=#008cff;fontColor=#666666;fontSize=17;align=left;spacingLeft=3;whiteSpace=wrap;" vertex="1" parent="1">
          <mxGeometry x="-340" y="390" width="510" height="30" as="geometry" />
        </mxCell>
        <mxCell id="WWXppitXivF2P4fgh3su-17" value="&lt;b&gt;&lt;font style=&quot;font-size: 20px&quot;&gt;Book1&lt;/font&gt;&lt;/b&gt;&lt;br style=&quot;font-size: 14px&quot;&gt;&lt;br style=&quot;font-size: 14px&quot;&gt;Author" style="html=1;shadow=0;dashed=0;shape=mxgraph.bootstrap.rrect;rSize=5;strokeColor=#0071D5;html=1;whiteSpace=wrap;fillColor=#0085FC;fontColor=#ffffff;verticalAlign=bottom;align=left;spacing=20;spacingBottom=0;fontSize=14;" vertex="1" parent="1">
          <mxGeometry x="-340" y="450" width="250" height="180" as="geometry" />
        </mxCell>
        <mxCell id="WWXppitXivF2P4fgh3su-18" value="" style="html=1;shadow=0;dashed=0;shape=mxgraph.bootstrap.topButton;rSize=5;perimeter=none;whiteSpace=wrap;fillColor=#0081F4;strokeColor=#0071D5;fontColor=#ffffff;resizeWidth=1;fontSize=18;align=left;spacing=20;" vertex="1" parent="WWXppitXivF2P4fgh3su-17">
          <mxGeometry width="250" height="50" relative="1" as="geometry" />
        </mxCell>
        <mxCell id="j_sZR95B3NQtM3cPO6Pd-1" value="Borrow" style="rounded=1;fillColor=#0057D8;strokeColor=none;html=1;whiteSpace=wrap;fontColor=#ffffff;align=center;verticalAlign=middle;fontStyle=0;fontSize=12;sketch=0;" vertex="1" parent="WWXppitXivF2P4fgh3su-17">
          <mxGeometry x="10" y="9" width="86" height="33" as="geometry" />
        </mxCell>
        <mxCell id="zRgb0IUWuFot1mTM46Cf-1" value="Lib App" style="text;strokeColor=none;fillColor=none;html=1;fontSize=24;fontStyle=1;verticalAlign=middle;align=center;" vertex="1" parent="1">
          <mxGeometry x="-340" y="270" width="100" height="40" as="geometry" />
        </mxCell>
        <mxCell id="j_sZR95B3NQtM3cPO6Pd-2" value="&lt;b&gt;&lt;font style=&quot;font-size: 20px&quot;&gt;Book1&lt;/font&gt;&lt;/b&gt;&lt;br style=&quot;font-size: 14px&quot;&gt;&lt;br style=&quot;font-size: 14px&quot;&gt;Author" style="html=1;shadow=0;dashed=0;shape=mxgraph.bootstrap.rrect;rSize=5;strokeColor=#0071D5;html=1;whiteSpace=wrap;fillColor=#0085FC;fontColor=#ffffff;verticalAlign=bottom;align=left;spacing=20;spacingBottom=0;fontSize=14;" vertex="1" parent="1">
          <mxGeometry x="-80" y="450" width="250" height="180" as="geometry" />
        </mxCell>
        <mxCell id="j_sZR95B3NQtM3cPO6Pd-3" value="" style="html=1;shadow=0;dashed=0;shape=mxgraph.bootstrap.topButton;rSize=5;perimeter=none;whiteSpace=wrap;fillColor=#0081F4;strokeColor=#0071D5;fontColor=#ffffff;resizeWidth=1;fontSize=18;align=left;spacing=20;" vertex="1" parent="j_sZR95B3NQtM3cPO6Pd-2">
          <mxGeometry width="250" height="50" relative="1" as="geometry" />
        </mxCell>
        <mxCell id="j_sZR95B3NQtM3cPO6Pd-4" value="Borrow" style="rounded=1;fillColor=#0057D8;strokeColor=none;html=1;whiteSpace=wrap;fontColor=#ffffff;align=center;verticalAlign=middle;fontStyle=0;fontSize=12;sketch=0;" vertex="1" parent="j_sZR95B3NQtM3cPO6Pd-2">
          <mxGeometry x="10" y="9" width="86" height="33" as="geometry" />
        </mxCell>
        <mxCell id="j_sZR95B3NQtM3cPO6Pd-5" value="&lt;b&gt;&lt;font style=&quot;font-size: 20px&quot;&gt;Book1&lt;/font&gt;&lt;/b&gt;&lt;br style=&quot;font-size: 14px&quot;&gt;&lt;br style=&quot;font-size: 14px&quot;&gt;Author" style="html=1;shadow=0;dashed=0;shape=mxgraph.bootstrap.rrect;rSize=5;strokeColor=#0071D5;html=1;whiteSpace=wrap;fillColor=#0085FC;fontColor=#ffffff;verticalAlign=bottom;align=left;spacing=20;spacingBottom=0;fontSize=14;" vertex="1" parent="1">
          <mxGeometry x="-340" y="650" width="250" height="180" as="geometry" />
        </mxCell>
        <mxCell id="j_sZR95B3NQtM3cPO6Pd-6" value="" style="html=1;shadow=0;dashed=0;shape=mxgraph.bootstrap.topButton;rSize=5;perimeter=none;whiteSpace=wrap;fillColor=#0081F4;strokeColor=#0071D5;fontColor=#ffffff;resizeWidth=1;fontSize=18;align=left;spacing=20;" vertex="1" parent="j_sZR95B3NQtM3cPO6Pd-5">
          <mxGeometry width="250" height="50" relative="1" as="geometry" />
        </mxCell>
        <mxCell id="j_sZR95B3NQtM3cPO6Pd-7" value="Borrow" style="rounded=1;fillColor=#0057D8;strokeColor=none;html=1;whiteSpace=wrap;fontColor=#ffffff;align=center;verticalAlign=middle;fontStyle=0;fontSize=12;sketch=0;" vertex="1" parent="j_sZR95B3NQtM3cPO6Pd-5">
          <mxGeometry x="10" y="9" width="86" height="33" as="geometry" />
        </mxCell>
        <mxCell id="j_sZR95B3NQtM3cPO6Pd-8" value="&lt;b&gt;&lt;font style=&quot;font-size: 20px&quot;&gt;Book1&lt;/font&gt;&lt;/b&gt;&lt;br style=&quot;font-size: 14px&quot;&gt;&lt;br style=&quot;font-size: 14px&quot;&gt;Author" style="html=1;shadow=0;dashed=0;shape=mxgraph.bootstrap.rrect;rSize=5;strokeColor=#0071D5;html=1;whiteSpace=wrap;fillColor=#0085FC;fontColor=#ffffff;verticalAlign=bottom;align=left;spacing=20;spacingBottom=0;fontSize=14;" vertex="1" parent="1">
          <mxGeometry x="-80" y="650" width="250" height="180" as="geometry" />
        </mxCell>
        <mxCell id="j_sZR95B3NQtM3cPO6Pd-9" value="" style="html=1;shadow=0;dashed=0;shape=mxgraph.bootstrap.topButton;rSize=5;perimeter=none;whiteSpace=wrap;fillColor=#0081F4;strokeColor=#0071D5;fontColor=#ffffff;resizeWidth=1;fontSize=18;align=left;spacing=20;" vertex="1" parent="j_sZR95B3NQtM3cPO6Pd-8">
          <mxGeometry width="250" height="50" relative="1" as="geometry" />
        </mxCell>
        <mxCell id="j_sZR95B3NQtM3cPO6Pd-10" value="Borrow" style="rounded=1;fillColor=#0057D8;strokeColor=none;html=1;whiteSpace=wrap;fontColor=#ffffff;align=center;verticalAlign=middle;fontStyle=0;fontSize=12;sketch=0;" vertex="1" parent="j_sZR95B3NQtM3cPO6Pd-8">
          <mxGeometry x="10" y="9" width="86" height="33" as="geometry" />
        </mxCell>
        <mxCell id="juu4pUJvwcHYDgRE1Upf-1" value="Email address" style="fillColor=none;strokeColor=none;align=left;fontSize=14;" vertex="1" parent="1">
          <mxGeometry x="-1230" y="410.0000000000002" width="260" height="40" as="geometry" />
        </mxCell>
        <mxCell id="juu4pUJvwcHYDgRE1Upf-2" value="" style="html=1;shadow=0;dashed=0;shape=mxgraph.bootstrap.rrect;rSize=5;fillColor=none;strokeColor=#999999;align=left;spacing=15;fontSize=14;fontColor=#6C767D;" vertex="1" parent="1">
          <mxGeometry x="-1230" y="450" width="420" height="30" as="geometry" />
        </mxCell>
        <mxCell id="juu4pUJvwcHYDgRE1Upf-3" value="We&#39;ll never share your email with anyone else." style="fillColor=none;strokeColor=none;align=left;spacing=2;fontSize=12;fontColor=#999999;" vertex="1" parent="1">
          <mxGeometry x="-1230" y="479.9999999999998" width="260" height="30" as="geometry" />
        </mxCell>
        <mxCell id="juu4pUJvwcHYDgRE1Upf-4" value="Password" style="fillColor=none;strokeColor=none;align=left;fontSize=14;" vertex="1" parent="1">
          <mxGeometry x="-1230" y="509.9999999999998" width="260" height="40" as="geometry" />
        </mxCell>
        <mxCell id="juu4pUJvwcHYDgRE1Upf-5" value="" style="html=1;shadow=0;dashed=0;shape=mxgraph.bootstrap.rrect;rSize=5;fillColor=none;strokeColor=#999999;align=left;spacing=15;fontSize=14;fontColor=#6C767D;" vertex="1" parent="1">
          <mxGeometry x="-1230" y="550" width="420" height="30" as="geometry" />
        </mxCell>
        <mxCell id="juu4pUJvwcHYDgRE1Upf-6" value="Check me out" style="html=1;shadow=0;dashed=0;shape=mxgraph.bootstrap.rrect;rSize=2;fillColor=#EDEDED;strokeColor=#999999;align=left;fontSize=14;fontColor=#000000;labelPosition=right;verticalLabelPosition=middle;verticalAlign=middle;spacingLeft=5;spacingTop=-2;gradientColor=#DEDEDE;" vertex="1" parent="1">
          <mxGeometry x="-1230" y="599.9999999999998" width="10" height="10" as="geometry" />
        </mxCell>
        <mxCell id="juu4pUJvwcHYDgRE1Upf-7" value="Sign Up" style="html=1;shadow=0;dashed=0;shape=mxgraph.bootstrap.rrect;rSize=5;fillColor=#0085FC;strokeColor=none;align=center;fontSize=14;fontColor=#FFFFFF;" vertex="1" parent="1">
          <mxGeometry x="-1230" y="629.9999999999998" width="70" height="40" as="geometry" />
        </mxCell>
        <mxCell id="juu4pUJvwcHYDgRE1Upf-30" value="" style="swimlane;shape=mxgraph.bootstrap.anchor;strokeColor=#999999;fillColor=#ffffff;fontColor=#666666;childLayout=stackLayout;horizontal=0;startSize=0;horizontalStack=1;resizeParent=1;resizeParentMax=0;resizeLast=0;collapsible=0;marginBottom=0;whiteSpace=wrap;html=1;" vertex="1" parent="1">
          <mxGeometry x="460" y="330" width="420" height="30" as="geometry" />
        </mxCell>
        <mxCell id="juu4pUJvwcHYDgRE1Upf-32" value="Browse Books" style="text;strokeColor=inherit;align=center;verticalAlign=middle;spacingLeft=10;spacingRight=10;overflow=hidden;points=[[0,0.5],[1,0.5]];portConstraint=eastwest;rotatable=0;whiteSpace=wrap;html=1;fillColor=inherit;fontColor=inherit;fontSize=17;" vertex="1" parent="juu4pUJvwcHYDgRE1Upf-30">
          <mxGeometry width="170" height="30" as="geometry" />
        </mxCell>
        <mxCell id="juu4pUJvwcHYDgRE1Upf-33" value="My Account" style="text;strokeColor=#6c8ebf;align=center;verticalAlign=middle;spacingLeft=10;spacingRight=10;overflow=hidden;points=[[0,0.5],[1,0.5]];portConstraint=eastwest;rotatable=0;whiteSpace=wrap;html=1;fillColor=#dae8fc;fontSize=17;" vertex="1" parent="juu4pUJvwcHYDgRE1Upf-30">
          <mxGeometry x="170" width="130" height="30" as="geometry" />
        </mxCell>
        <mxCell id="juu4pUJvwcHYDgRE1Upf-34" value="Logout" style="text;strokeColor=inherit;align=center;verticalAlign=middle;spacingLeft=10;spacingRight=10;overflow=hidden;points=[[0,0.5],[1,0.5]];portConstraint=eastwest;rotatable=0;whiteSpace=wrap;html=1;fillColor=inherit;fontColor=inherit;fontSize=17;" vertex="1" parent="juu4pUJvwcHYDgRE1Upf-30">
          <mxGeometry x="300" width="120" height="30" as="geometry" />
        </mxCell>
        <mxCell id="juu4pUJvwcHYDgRE1Upf-36" value="&lt;b&gt;&lt;font style=&quot;font-size: 20px&quot;&gt;Book1&lt;/font&gt;&lt;/b&gt;&lt;br style=&quot;font-size: 14px&quot;&gt;&lt;br style=&quot;font-size: 14px&quot;&gt;Author" style="html=1;shadow=0;dashed=0;shape=mxgraph.bootstrap.rrect;rSize=5;strokeColor=#0071D5;html=1;whiteSpace=wrap;fillColor=#0085FC;fontColor=#ffffff;verticalAlign=bottom;align=left;spacing=20;spacingBottom=0;fontSize=14;container=0;" vertex="1" parent="1">
          <mxGeometry x="460" y="549" width="250" height="180" as="geometry" />
        </mxCell>
        <mxCell id="juu4pUJvwcHYDgRE1Upf-39" value="Lib App" style="text;strokeColor=none;fillColor=none;html=1;fontSize=24;fontStyle=1;verticalAlign=middle;align=center;" vertex="1" parent="1">
          <mxGeometry x="460" y="280" width="100" height="40" as="geometry" />
        </mxCell>
        <mxCell id="juu4pUJvwcHYDgRE1Upf-50" value="Borrowed Books" style="text;align=left;fontStyle=1;verticalAlign=middle;spacingLeft=3;spacingRight=3;strokeColor=none;rotatable=0;points=[[0,0.5],[1,0.5]];portConstraint=eastwest;html=1;" vertex="1" parent="1">
          <mxGeometry x="460" y="509" width="80" height="26" as="geometry" />
        </mxCell>
        <mxCell id="juu4pUJvwcHYDgRE1Upf-37" value="" style="html=1;shadow=0;dashed=0;shape=mxgraph.bootstrap.topButton;rSize=5;perimeter=none;whiteSpace=wrap;fillColor=#0081F4;strokeColor=#0071D5;fontColor=#ffffff;resizeWidth=1;fontSize=18;align=left;spacing=20;" vertex="1" parent="1">
          <mxGeometry x="460" y="549" width="250" height="50" as="geometry" />
        </mxCell>
        <mxCell id="juu4pUJvwcHYDgRE1Upf-38" value="Due: __/__/____" style="rounded=1;fillColor=#0057D8;strokeColor=none;html=1;whiteSpace=wrap;fontColor=#ffffff;align=center;verticalAlign=middle;fontStyle=0;fontSize=12;sketch=0;" vertex="1" parent="1">
          <mxGeometry x="470" y="558" width="230" height="33" as="geometry" />
        </mxCell>
        <mxCell id="juu4pUJvwcHYDgRE1Upf-51" value="&lt;b&gt;&lt;font style=&quot;font-size: 20px&quot;&gt;Book1&lt;/font&gt;&lt;/b&gt;&lt;br style=&quot;font-size: 14px&quot;&gt;&lt;br style=&quot;font-size: 14px&quot;&gt;Author" style="html=1;shadow=0;dashed=0;shape=mxgraph.bootstrap.rrect;rSize=5;strokeColor=#0071D5;html=1;whiteSpace=wrap;fillColor=#0085FC;fontColor=#ffffff;verticalAlign=bottom;align=left;spacing=20;spacingBottom=0;fontSize=14;container=0;" vertex="1" parent="1">
          <mxGeometry x="720" y="549" width="250" height="180" as="geometry" />
        </mxCell>
        <mxCell id="juu4pUJvwcHYDgRE1Upf-52" value="" style="html=1;shadow=0;dashed=0;shape=mxgraph.bootstrap.topButton;rSize=5;perimeter=none;whiteSpace=wrap;fillColor=#0081F4;strokeColor=#0071D5;fontColor=#ffffff;resizeWidth=1;fontSize=18;align=left;spacing=20;" vertex="1" parent="1">
          <mxGeometry x="720" y="549" width="250" height="50" as="geometry" />
        </mxCell>
        <mxCell id="juu4pUJvwcHYDgRE1Upf-53" value="Due: __/__/____" style="rounded=1;fillColor=#0057D8;strokeColor=none;html=1;whiteSpace=wrap;fontColor=#ffffff;align=center;verticalAlign=middle;fontStyle=0;fontSize=12;sketch=0;" vertex="1" parent="1">
          <mxGeometry x="730" y="558" width="230" height="33" as="geometry" />
        </mxCell>
        <mxCell id="juu4pUJvwcHYDgRE1Upf-54" value="&lt;b&gt;&lt;font style=&quot;font-size: 20px&quot;&gt;Book1&lt;/font&gt;&lt;/b&gt;&lt;br style=&quot;font-size: 14px&quot;&gt;&lt;br style=&quot;font-size: 14px&quot;&gt;Author" style="html=1;shadow=0;dashed=0;shape=mxgraph.bootstrap.rrect;rSize=5;strokeColor=#0071D5;html=1;whiteSpace=wrap;fillColor=#0085FC;fontColor=#ffffff;verticalAlign=bottom;align=left;spacing=20;spacingBottom=0;fontSize=14;container=0;" vertex="1" parent="1">
          <mxGeometry x="460" y="749" width="250" height="180" as="geometry" />
        </mxCell>
        <mxCell id="juu4pUJvwcHYDgRE1Upf-55" value="" style="html=1;shadow=0;dashed=0;shape=mxgraph.bootstrap.topButton;rSize=5;perimeter=none;whiteSpace=wrap;fillColor=#0081F4;strokeColor=#0071D5;fontColor=#ffffff;resizeWidth=1;fontSize=18;align=left;spacing=20;" vertex="1" parent="1">
          <mxGeometry x="460" y="749" width="250" height="50" as="geometry" />
        </mxCell>
        <mxCell id="juu4pUJvwcHYDgRE1Upf-56" value="Due: __/__/____" style="rounded=1;fillColor=#0057D8;strokeColor=none;html=1;whiteSpace=wrap;fontColor=#ffffff;align=center;verticalAlign=middle;fontStyle=0;fontSize=12;sketch=0;" vertex="1" parent="1">
          <mxGeometry x="470" y="758" width="230" height="33" as="geometry" />
        </mxCell>
        <mxCell id="juu4pUJvwcHYDgRE1Upf-57" value="&lt;b&gt;&lt;font style=&quot;font-size: 20px&quot;&gt;Book1&lt;/font&gt;&lt;/b&gt;&lt;br style=&quot;font-size: 14px&quot;&gt;&lt;br style=&quot;font-size: 14px&quot;&gt;Author" style="html=1;shadow=0;dashed=0;shape=mxgraph.bootstrap.rrect;rSize=5;strokeColor=#0071D5;html=1;whiteSpace=wrap;fillColor=#0085FC;fontColor=#ffffff;verticalAlign=bottom;align=left;spacing=20;spacingBottom=0;fontSize=14;container=0;" vertex="1" parent="1">
          <mxGeometry x="720" y="749" width="250" height="180" as="geometry" />
        </mxCell>
        <mxCell id="juu4pUJvwcHYDgRE1Upf-58" value="" style="html=1;shadow=0;dashed=0;shape=mxgraph.bootstrap.topButton;rSize=5;perimeter=none;whiteSpace=wrap;fillColor=#0081F4;strokeColor=#0071D5;fontColor=#ffffff;resizeWidth=1;fontSize=18;align=left;spacing=20;" vertex="1" parent="1">
          <mxGeometry x="720" y="749" width="250" height="50" as="geometry" />
        </mxCell>
        <mxCell id="juu4pUJvwcHYDgRE1Upf-59" value="Due: __/__/____" style="rounded=1;fillColor=#0057D8;strokeColor=none;html=1;whiteSpace=wrap;fontColor=#ffffff;align=center;verticalAlign=middle;fontStyle=0;fontSize=12;sketch=0;" vertex="1" parent="1">
          <mxGeometry x="730" y="758" width="230" height="33" as="geometry" />
        </mxCell>
        <mxCell id="juu4pUJvwcHYDgRE1Upf-60" value="Personal Info" style="text;align=left;fontStyle=1;verticalAlign=middle;spacingLeft=3;spacingRight=3;strokeColor=none;rotatable=0;points=[[0,0.5],[1,0.5]];portConstraint=eastwest;html=1;" vertex="1" parent="1">
          <mxGeometry x="460" y="382" width="80" height="26" as="geometry" />
        </mxCell>
        <mxCell id="juu4pUJvwcHYDgRE1Upf-61" value="&lt;ul style=&quot;font-size: 14px; line-height: 200%;&quot;&gt;&lt;li style=&quot;font-size: 14px;&quot;&gt;Name: ...&lt;/li&gt;&lt;li style=&quot;font-size: 14px;&quot;&gt;Email: ...&lt;/li&gt;&lt;li style=&quot;font-size: 14px;&quot;&gt;Phone: ...&amp;nbsp;&lt;/li&gt;&lt;/ul&gt;" style="text;strokeColor=none;fillColor=none;html=1;whiteSpace=wrap;verticalAlign=middle;overflow=hidden;fontSize=14;" vertex="1" parent="1">
          <mxGeometry x="450" y="390" width="290" height="120" as="geometry" />
        </mxCell>
        <mxCell id="juu4pUJvwcHYDgRE1Upf-80" value="" style="swimlane;shape=mxgraph.bootstrap.anchor;strokeColor=#999999;fillColor=#ffffff;fontColor=#666666;childLayout=stackLayout;horizontal=0;startSize=0;horizontalStack=1;resizeParent=1;resizeParentMax=0;resizeLast=0;collapsible=0;marginBottom=0;whiteSpace=wrap;html=1;" vertex="1" parent="1">
          <mxGeometry x="-450" y="1090" width="420" height="30" as="geometry" />
        </mxCell>
        <mxCell id="juu4pUJvwcHYDgRE1Upf-81" value="Manage Books" style="text;strokeColor=#6c8ebf;align=center;verticalAlign=middle;spacingLeft=10;spacingRight=10;overflow=hidden;points=[[0,0.5],[1,0.5]];portConstraint=eastwest;rotatable=0;whiteSpace=wrap;html=1;fillColor=#dae8fc;fontSize=17;" vertex="1" parent="juu4pUJvwcHYDgRE1Upf-80">
          <mxGeometry width="170" height="30" as="geometry" />
        </mxCell>
        <mxCell id="juu4pUJvwcHYDgRE1Upf-82" value="View Records" style="text;strokeColor=inherit;align=center;verticalAlign=middle;spacingLeft=10;spacingRight=10;overflow=hidden;points=[[0,0.5],[1,0.5]];portConstraint=eastwest;rotatable=0;whiteSpace=wrap;html=1;fillColor=inherit;fontColor=inherit;fontSize=17;" vertex="1" parent="juu4pUJvwcHYDgRE1Upf-80">
          <mxGeometry x="170" width="130" height="30" as="geometry" />
        </mxCell>
        <mxCell id="juu4pUJvwcHYDgRE1Upf-83" value="Logout" style="text;strokeColor=inherit;align=center;verticalAlign=middle;spacingLeft=10;spacingRight=10;overflow=hidden;points=[[0,0.5],[1,0.5]];portConstraint=eastwest;rotatable=0;whiteSpace=wrap;html=1;fillColor=inherit;fontColor=inherit;fontSize=17;" vertex="1" parent="juu4pUJvwcHYDgRE1Upf-80">
          <mxGeometry x="300" width="120" height="30" as="geometry" />
        </mxCell>
        <mxCell id="juu4pUJvwcHYDgRE1Upf-84" value="Lib App" style="text;strokeColor=none;fillColor=none;html=1;fontSize=24;fontStyle=1;verticalAlign=middle;align=center;" vertex="1" parent="1">
          <mxGeometry x="-450" y="1040" width="100" height="40" as="geometry" />
        </mxCell>
        <mxCell id="juu4pUJvwcHYDgRE1Upf-86" value="Add/Update Books" style="text;align=left;fontStyle=1;verticalAlign=middle;spacingLeft=3;spacingRight=3;strokeColor=none;rotatable=0;points=[[0,0.5],[1,0.5]];portConstraint=eastwest;html=1;" vertex="1" parent="1">
          <mxGeometry x="-450" y="1142" width="80" height="26" as="geometry" />
        </mxCell>
        <mxCell id="juu4pUJvwcHYDgRE1Upf-87" value="&lt;ul style=&quot;line-height: 200%;&quot;&gt;&lt;li style=&quot;&quot;&gt;&lt;li style=&quot;&quot;&gt;Title: [__________]&lt;/li&gt;&lt;li style=&quot;&quot;&gt;Author: [__________]&amp;nbsp; &amp;nbsp;&amp;nbsp;&lt;/li&gt;&lt;li style=&quot;&quot;&gt;Publisher: [__________]&amp;nbsp;&lt;/li&gt;&lt;li style=&quot;&quot;&gt;Publication Date: [__/__/____]&amp;nbsp;&lt;/li&gt;&lt;li style=&quot;&quot;&gt;Genre: [__________]&amp;nbsp; &amp;nbsp; &amp;nbsp;&lt;/li&gt;&lt;li style=&quot;&quot;&gt;Copies Available: [___]&lt;/li&gt;&lt;/li&gt;&lt;/ul&gt;" style="text;strokeColor=none;fillColor=none;html=1;whiteSpace=wrap;verticalAlign=middle;overflow=hidden;fontSize=14;" vertex="1" parent="1">
          <mxGeometry x="-450" y="1175" width="290" height="180" as="geometry" />
        </mxCell>
        <mxCell id="juu4pUJvwcHYDgRE1Upf-88" value="Add/Update" style="rounded=1;fillColor=#0057D8;strokeColor=none;html=1;whiteSpace=wrap;fontColor=#ffffff;align=center;verticalAlign=middle;fontStyle=0;fontSize=12;sketch=0;" vertex="1" parent="1">
          <mxGeometry x="-116" y="1337" width="86" height="33" as="geometry" />
        </mxCell>
        <mxCell id="juu4pUJvwcHYDgRE1Upf-90" value="" style="swimlane;shape=mxgraph.bootstrap.anchor;strokeColor=#999999;fillColor=#ffffff;fontColor=#666666;childLayout=stackLayout;horizontal=0;startSize=0;horizontalStack=1;resizeParent=1;resizeParentMax=0;resizeLast=0;collapsible=0;marginBottom=0;whiteSpace=wrap;html=1;" vertex="1" parent="1">
          <mxGeometry x="230" y="1098" width="420" height="30" as="geometry" />
        </mxCell>
        <mxCell id="juu4pUJvwcHYDgRE1Upf-91" value="Manage Books" style="text;strokeColor=inherit;align=center;verticalAlign=middle;spacingLeft=10;spacingRight=10;overflow=hidden;points=[[0,0.5],[1,0.5]];portConstraint=eastwest;rotatable=0;whiteSpace=wrap;html=1;fillColor=inherit;fontColor=inherit;fontSize=17;" vertex="1" parent="juu4pUJvwcHYDgRE1Upf-90">
          <mxGeometry width="170" height="30" as="geometry" />
        </mxCell>
        <mxCell id="juu4pUJvwcHYDgRE1Upf-92" value="View Records" style="text;strokeColor=#6c8ebf;align=center;verticalAlign=middle;spacingLeft=10;spacingRight=10;overflow=hidden;points=[[0,0.5],[1,0.5]];portConstraint=eastwest;rotatable=0;whiteSpace=wrap;html=1;fillColor=#dae8fc;fontSize=17;" vertex="1" parent="juu4pUJvwcHYDgRE1Upf-90">
          <mxGeometry x="170" width="130" height="30" as="geometry" />
        </mxCell>
        <mxCell id="juu4pUJvwcHYDgRE1Upf-93" value="Logout" style="text;strokeColor=inherit;align=center;verticalAlign=middle;spacingLeft=10;spacingRight=10;overflow=hidden;points=[[0,0.5],[1,0.5]];portConstraint=eastwest;rotatable=0;whiteSpace=wrap;html=1;fillColor=inherit;fontColor=inherit;fontSize=17;" vertex="1" parent="juu4pUJvwcHYDgRE1Upf-90">
          <mxGeometry x="300" width="120" height="30" as="geometry" />
        </mxCell>
        <mxCell id="juu4pUJvwcHYDgRE1Upf-94" value="Lib App" style="text;strokeColor=none;fillColor=none;html=1;fontSize=24;fontStyle=1;verticalAlign=middle;align=center;" vertex="1" parent="1">
          <mxGeometry x="230" y="1048" width="100" height="40" as="geometry" />
        </mxCell>
        <mxCell id="juu4pUJvwcHYDgRE1Upf-99" value="&lt;span style=&quot;font-weight: 700; text-align: left; text-wrap: nowrap;&quot;&gt;View Borrowing Records&lt;/span&gt;" style="swimlane;fontStyle=0;childLayout=stackLayout;horizontal=1;startSize=30;horizontalStack=0;resizeParent=1;resizeParentMax=0;resizeLast=0;collapsible=1;marginBottom=0;whiteSpace=wrap;html=1;" vertex="1" parent="1">
          <mxGeometry x="230" y="1158" width="420" height="170" as="geometry" />
        </mxCell>
        <mxCell id="juu4pUJvwcHYDgRE1Upf-100" value="&lt;div style=&quot;font-size: 15px;&quot;&gt;&lt;font style=&quot;font-size: 15px;&quot;&gt;| Record ID | Member ID | Book ID | Borrow Date | Return Date |&lt;/font&gt;&lt;/div&gt;&lt;div style=&quot;font-size: 15px;&quot;&gt;&lt;font style=&quot;font-size: 15px;&quot;&gt;| 1&amp;nbsp; &amp;nbsp; &amp;nbsp; &amp;nbsp; &amp;nbsp;| M001&amp;nbsp; &amp;nbsp; &amp;nbsp;| B001&amp;nbsp; &amp;nbsp; | __/__/____&amp;nbsp; &amp;nbsp;| __/__/____&amp;nbsp; &amp;nbsp;|&lt;/font&gt;&lt;/div&gt;&lt;div style=&quot;font-size: 15px;&quot;&gt;&lt;font style=&quot;font-size: 15px;&quot;&gt;| 2&amp;nbsp; &amp;nbsp; &amp;nbsp; &amp;nbsp; &amp;nbsp;| M002&amp;nbsp; &amp;nbsp; &amp;nbsp;| B002&amp;nbsp; &amp;nbsp; | __/__/____&amp;nbsp; &amp;nbsp;| __/__/____&amp;nbsp; &amp;nbsp;|&lt;/font&gt;&lt;/div&gt;" style="text;strokeColor=none;fillColor=none;align=left;verticalAlign=middle;spacingLeft=4;spacingRight=4;overflow=hidden;points=[[0,0.5],[1,0.5]];portConstraint=eastwest;rotatable=0;whiteSpace=wrap;html=1;" vertex="1" parent="juu4pUJvwcHYDgRE1Upf-99">
          <mxGeometry y="30" width="420" height="140" as="geometry" />
        </mxCell>
        <mxCell id="juu4pUJvwcHYDgRE1Upf-103" value="Register as a Member" style="text;align=left;fontStyle=1;verticalAlign=middle;spacingLeft=3;spacingRight=3;strokeColor=none;rotatable=0;points=[[0,0.5],[1,0.5]];portConstraint=eastwest;html=1;" vertex="1" parent="1">
          <mxGeometry x="-1230" y="380" width="80" height="26" as="geometry" />
        </mxCell>
        <mxCell id="juu4pUJvwcHYDgRE1Upf-104" value="Lib App" style="text;strokeColor=none;fillColor=none;html=1;fontSize=24;fontStyle=1;verticalAlign=middle;align=center;" vertex="1" parent="1">
          <mxGeometry x="-1230" y="330" width="100" height="40" as="geometry" />
        </mxCell>
      </root>
    </mxGraphModel>
  </diagram>
  <diagram id="L-F6ppLiKRkGQRgF6qrg" name="Page-2">
    <mxGraphModel dx="2049" dy="1126" grid="1" gridSize="10" guides="1" tooltips="1" connect="1" arrows="1" fold="1" page="1" pageScale="1" pageWidth="850" pageHeight="1100" math="0" shadow="0">
      <root>
        <mxCell id="0" />
        <mxCell id="1" parent="0" />
      </root>
    </mxGraphModel>
  </diagram>
  <diagram id="JbJnO7TBySEy7cn3oZL0" name="Page-3">
    <mxGraphModel dx="1434" dy="788" grid="1" gridSize="10" guides="1" tooltips="1" connect="1" arrows="1" fold="1" page="1" pageScale="1" pageWidth="850" pageHeight="1100" math="0" shadow="0">
      <root>
        <mxCell id="0" />
        <mxCell id="1" parent="0" />
      </root>
    </mxGraphModel>
  </diagram>
</mxfile>
